<?xml version="1.0" encoding="UTF-8"?>
<svg version="1.1" viewBox="0 0 17.375 4.1472" xmlns="http://www.w3.org/2000/svg" xmlns:cc="http://creativecommons.org/ns#" xmlns:dc="http://purl.org/dc/elements/1.1/" xmlns:rdf="http://www.w3.org/1999/02/22-rdf-syntax-ns#">
 <metadata>
  <rdf:RDF>
   <cc:Work rdf:about="">
    <dc:format>image/svg+xml</dc:format>
    <dc:type rdf:resource="http://purl.org/dc/dcmitype/StillImage"/>
    <dc:title/>
   </cc:Work>
  </rdf:RDF>
 </metadata>
 <g transform="translate(-59.249 -107.01)">
  <g transform="translate(18.706 -2.8914)">
   <path d="m43.944 109.9a0.75008 0.75008 0 0 0-0.53711 0.21875l-2.6445 2.6465a0.75 0.75 0 0 0 0 1.0606 0.75 0.75 0 0 0 1.0605 0l2.1152-2.1133 2.1152 2.1133a0.75008 0.75008 0 0 0 1.0605 0l2.1152-2.1152 2.1152 2.1152a0.75008 0.75008 0 0 0 1.0625 0l2.1152-2.1152 2.1152 2.1152a0.75 0.75 0 0 0 1.0605 0 0.75 0.75 0 0 0 0-1.0606l-2.6465-2.6465a0.75008 0.75008 0 0 0-1.0605 0l-2.1152 2.1152-2.1152-2.1152a0.75008 0.75008 0 0 0-1.0605 0l-2.1152 2.1152-2.1152-2.1152a0.75008 0.75008 0 0 0-0.52539-0.21875z" color="#000000" color-rendering="auto" dominant-baseline="auto" image-rendering="auto" shape-rendering="auto" solid-color="#000000" stop-color="#000000" style="font-feature-settings:normal;font-variant-alternates:normal;font-variant-caps:normal;font-variant-east-asian:normal;font-variant-ligatures:normal;font-variant-numeric:normal;font-variant-position:normal;font-variation-settings:normal;inline-size:0;isolation:auto;mix-blend-mode:normal;shape-margin:0;shape-padding:0;text-decoration-color:#000000;text-decoration-line:none;text-decoration-style:solid;text-indent:0;text-orientation:mixed;text-transform:none;white-space:normal"/>
  </g>
 </g>
</svg>
